<?xml version="1.0" encoding="UTF-8" standalone="no"?>
<!DOCTYPE svg PUBLIC "-//W3C//DTD SVG 1.1//EN"
 "http://www.w3.org/Graphics/SVG/1.1/DTD/svg11.dtd">
<!-- Generated by graphviz version 2.36.0 (20140111.2315)
 -->
<!-- Title: lifecycle Pages: 1 -->
<svg width="414pt" height="278pt"
 viewBox="0.00 0.00 414.30 278.36" xmlns="http://www.w3.org/2000/svg" xmlns:xlink="http://www.w3.org/1999/xlink">
<g id="graph0" class="graph" transform="scale(1 1) rotate(0) translate(4 274.358)">
<title>lifecycle</title>
<polygon fill="white" stroke="none" points="-4,4 -4,-274.358 410.302,-274.358 410.302,4 -4,4"/>
<!-- contribute -->
<g id="node1" class="node"><title>contribute</title>
<polygon fill="lightblue" stroke="lightblue" points="65,-119.214 0,-119.214 0,-83.2141 65,-83.2141 65,-119.214"/>
<text text-anchor="middle" x="32.5" y="-97.5141" font-family="Times,serif" font-size="14.00">contribute</text>
</g>
<!-- source -->
<g id="node2" class="node"><title>source</title>
<polygon fill="lightblue" stroke="lightblue" points="158.058,-145.248 93.0582,-145.248 93.0582,-109.248 158.058,-109.248 158.058,-145.248"/>
<text text-anchor="middle" x="125.558" y="-123.548" font-family="Times,serif" font-size="14.00">source</text>
</g>
<!-- contribute&#45;&gt;source -->
<g id="edge1" class="edge"><title>contribute&#45;&gt;source</title>
<path fill="none" stroke="black" d="M65.0473,-110.32C70.8225,-111.935 76.9145,-113.64 82.9195,-115.32"/>
<polygon fill="black" stroke="black" points="82.2988,-118.78 92.8721,-118.104 84.1848,-112.039 82.2988,-118.78"/>
</g>
<!-- build -->
<g id="node3" class="node"><title>build</title>
<polygon fill="lightblue" stroke="lightblue" points="184.685,-244.88 119.685,-244.88 119.685,-208.88 184.685,-208.88 184.685,-244.88"/>
<text text-anchor="middle" x="152.185" y="-223.18" font-family="Times,serif" font-size="14.00">build</text>
</g>
<!-- source&#45;&gt;build -->
<g id="edge2" class="edge"><title>source&#45;&gt;build</title>
<path fill="none" stroke="black" d="M130.442,-145.522C134.421,-160.409 140.106,-181.681 144.665,-198.74"/>
<polygon fill="black" stroke="black" points="141.369,-199.965 147.333,-208.722 148.132,-198.157 141.369,-199.965"/>
</g>
<!-- deploy -->
<g id="node4" class="node"><title>deploy</title>
<polygon fill="lightblue" stroke="lightblue" points="282.518,-270.358 217.518,-270.358 217.518,-234.358 282.518,-234.358 282.518,-270.358"/>
<text text-anchor="middle" x="250.018" y="-248.658" font-family="Times,serif" font-size="14.00">deploy</text>
</g>
<!-- build&#45;&gt;deploy -->
<g id="edge3" class="edge"><title>build&#45;&gt;deploy</title>
<path fill="none" stroke="black" d="M184.762,-235.364C192.028,-237.256 199.838,-239.29 207.44,-241.27"/>
<polygon fill="black" stroke="black" points="206.691,-244.691 217.25,-243.825 208.455,-237.917 206.691,-244.691"/>
</g>
<!-- upgrade -->
<g id="node5" class="node"><title>upgrade</title>
<polygon fill="lightblue" stroke="lightblue" points="357.873,-202.946 292.873,-202.946 292.873,-166.946 357.873,-166.946 357.873,-202.946"/>
<text text-anchor="middle" x="325.373" y="-181.246" font-family="Times,serif" font-size="14.00">upgrade</text>
</g>
<!-- deploy&#45;&gt;upgrade -->
<g id="edge4" class="edge"><title>deploy&#45;&gt;upgrade</title>
<path fill="none" stroke="black" d="M270.212,-234.293C278.574,-226.812 288.413,-218.011 297.448,-209.928"/>
<polygon fill="black" stroke="black" points="300.004,-212.337 305.124,-203.061 295.337,-207.12 300.004,-212.337"/>
</g>
<!-- operate -->
<g id="node6" class="node"><title>operate</title>
<polygon fill="lightblue" stroke="lightblue" points="335.916,-102.224 270.916,-102.224 270.916,-66.2235 335.916,-66.2235 335.916,-102.224"/>
<text text-anchor="middle" x="303.416" y="-80.5235" font-family="Times,serif" font-size="14.00">operate</text>
</g>
<!-- upgrade&#45;&gt;operate -->
<g id="edge5" class="edge"><title>upgrade&#45;&gt;operate</title>
<path fill="none" stroke="black" d="M321.448,-166.939C318.159,-151.85 313.404,-130.042 309.604,-112.606"/>
<polygon fill="black" stroke="black" points="312.931,-111.439 307.382,-102.414 306.092,-112.931 312.931,-111.439"/>
</g>
<!-- change -->
<g id="node7" class="node"><title>change</title>
<polygon fill="lightblue" stroke="lightblue" points="236.195,-79.2481 171.195,-79.2481 171.195,-43.2481 236.195,-43.2481 236.195,-79.2481"/>
<text text-anchor="middle" x="203.695" y="-57.5481" font-family="Times,serif" font-size="14.00">change</text>
</g>
<!-- operate&#45;&gt;change -->
<g id="edge6" class="edge"><title>operate&#45;&gt;change</title>
<path fill="none" stroke="black" d="M270.764,-76.7005C262.929,-74.8955 254.449,-72.9417 246.239,-71.0502"/>
<polygon fill="black" stroke="black" points="246.951,-67.6226 236.421,-68.788 245.379,-74.4439 246.951,-67.6226"/>
</g>
<!-- remove -->
<g id="node8" class="node"><title>remove</title>
<polygon fill="lightblue" stroke="lightblue" points="406.302,-36 341.302,-36 341.302,-0 406.302,-0 406.302,-36"/>
<text text-anchor="middle" x="373.802" y="-14.3" font-family="Times,serif" font-size="14.00">remove</text>
</g>
<!-- operate&#45;&gt;remove -->
<g id="edge8" class="edge"><title>operate&#45;&gt;remove</title>
<path fill="none" stroke="black" d="M322.649,-66.1277C330.176,-59.0465 338.938,-50.8029 347.061,-43.16"/>
<polygon fill="black" stroke="black" points="349.707,-45.4756 354.592,-36.074 344.911,-40.3773 349.707,-45.4756"/>
</g>
<!-- change&#45;&gt;source -->
<g id="edge7" class="edge"><title>change&#45;&gt;source</title>
<path fill="none" stroke="black" d="M182.343,-79.283C173.816,-86.4858 163.86,-94.8954 154.687,-102.644"/>
<polygon fill="black" stroke="black" points="152.264,-100.109 146.884,-109.235 156.781,-105.456 152.264,-100.109"/>
</g>
</g>
</svg>
