<?xml version="1.0" encoding="UTF-8" standalone="no"?>
<!DOCTYPE svg PUBLIC "-//W3C//DTD SVG 1.1//EN"
 "http://www.w3.org/Graphics/SVG/1.1/DTD/svg11.dtd">
<!-- Generated by graphviz version 2.36.0 (20140111.2315)
 -->
<!-- Title: lifecycle Pages: 1 -->
<svg width="171pt" height="476pt"
 viewBox="0.00 0.00 171.00 476.00" xmlns="http://www.w3.org/2000/svg" xmlns:xlink="http://www.w3.org/1999/xlink">
<g id="graph0" class="graph" transform="scale(1 1) rotate(0) translate(4 472)">
<title>lifecycle</title>
<polygon fill="white" stroke="none" points="-4,4 -4,-472 167,-472 167,4 -4,4"/>
<!-- contribute -->
<g id="node1" class="node"><title>contribute</title>
<ellipse fill="none" stroke="black" cx="101" cy="-450" rx="46.2191" ry="18"/>
<text text-anchor="middle" x="101" y="-446.3" font-family="Times,serif" font-size="14.00">contribute</text>
</g>
<!-- source -->
<g id="node2" class="node"><title>source</title>
<ellipse fill="none" stroke="black" cx="101" cy="-378" rx="33.1991" ry="18"/>
<text text-anchor="middle" x="101" y="-374.3" font-family="Times,serif" font-size="14.00">source</text>
</g>
<!-- contribute&#45;&gt;source -->
<g id="edge1" class="edge"><title>contribute&#45;&gt;source</title>
<path fill="none" stroke="black" d="M101,-431.697C101,-423.983 101,-414.712 101,-406.112"/>
<polygon fill="black" stroke="black" points="104.5,-406.104 101,-396.104 97.5001,-406.104 104.5,-406.104"/>
</g>
<!-- build -->
<g id="node3" class="node"><title>build</title>
<ellipse fill="none" stroke="black" cx="68" cy="-306" rx="28.3955" ry="18"/>
<text text-anchor="middle" x="68" y="-302.3" font-family="Times,serif" font-size="14.00">build</text>
</g>
<!-- source&#45;&gt;build -->
<g id="edge2" class="edge"><title>source&#45;&gt;build</title>
<path fill="none" stroke="black" d="M93.1795,-360.411C89.2752,-352.129 84.4646,-341.925 80.0978,-332.662"/>
<polygon fill="black" stroke="black" points="83.1945,-331.023 75.7644,-323.47 76.8628,-334.008 83.1945,-331.023"/>
</g>
<!-- deploy -->
<g id="node4" class="node"><title>deploy</title>
<ellipse fill="none" stroke="black" cx="63" cy="-234" rx="34.1708" ry="18"/>
<text text-anchor="middle" x="63" y="-230.3" font-family="Times,serif" font-size="14.00">deploy</text>
</g>
<!-- build&#45;&gt;deploy -->
<g id="edge3" class="edge"><title>build&#45;&gt;deploy</title>
<path fill="none" stroke="black" d="M66.764,-287.697C66.2131,-279.983 65.5509,-270.712 64.9366,-262.112"/>
<polygon fill="black" stroke="black" points="68.4254,-261.83 64.2217,-252.104 61.4432,-262.328 68.4254,-261.83"/>
</g>
<!-- upgrade -->
<g id="node5" class="node"><title>upgrade</title>
<ellipse fill="none" stroke="black" cx="61" cy="-162" rx="38.4949" ry="18"/>
<text text-anchor="middle" x="61" y="-158.3" font-family="Times,serif" font-size="14.00">upgrade</text>
</g>
<!-- deploy&#45;&gt;upgrade -->
<g id="edge4" class="edge"><title>deploy&#45;&gt;upgrade</title>
<path fill="none" stroke="black" d="M62.5056,-215.697C62.2852,-207.983 62.0204,-198.712 61.7746,-190.112"/>
<polygon fill="black" stroke="black" points="65.273,-190 61.4887,-180.104 58.2758,-190.2 65.273,-190"/>
</g>
<!-- operate -->
<g id="node6" class="node"><title>operate</title>
<ellipse fill="none" stroke="black" cx="61" cy="-90" rx="36.096" ry="18"/>
<text text-anchor="middle" x="61" y="-86.3" font-family="Times,serif" font-size="14.00">operate</text>
</g>
<!-- upgrade&#45;&gt;operate -->
<g id="edge5" class="edge"><title>upgrade&#45;&gt;operate</title>
<path fill="none" stroke="black" d="M61,-143.697C61,-135.983 61,-126.712 61,-118.112"/>
<polygon fill="black" stroke="black" points="64.5001,-118.104 61,-108.104 57.5001,-118.104 64.5001,-118.104"/>
</g>
<!-- change -->
<g id="node7" class="node"><title>change</title>
<ellipse fill="none" stroke="black" cx="128" cy="-18" rx="35.6194" ry="18"/>
<text text-anchor="middle" x="128" y="-14.3" font-family="Times,serif" font-size="14.00">change</text>
</g>
<!-- operate&#45;&gt;change -->
<g id="edge6" class="edge"><title>operate&#45;&gt;change</title>
<path fill="none" stroke="black" d="M75.8695,-73.4647C84.7172,-64.2208 96.1072,-52.3208 105.983,-42.0032"/>
<polygon fill="black" stroke="black" points="108.786,-44.1362 113.172,-34.4918 103.729,-39.2959 108.786,-44.1362"/>
</g>
<!-- remove -->
<g id="node8" class="node"><title>remove</title>
<ellipse fill="none" stroke="black" cx="37" cy="-18" rx="37.5442" ry="18"/>
<text text-anchor="middle" x="37" y="-14.3" font-family="Times,serif" font-size="14.00">remove</text>
</g>
<!-- operate&#45;&gt;remove -->
<g id="edge8" class="edge"><title>operate&#45;&gt;remove</title>
<path fill="none" stroke="black" d="M55.1903,-72.055C52.4487,-64.0586 49.1134,-54.3308 46.0513,-45.3995"/>
<polygon fill="black" stroke="black" points="49.3104,-44.1133 42.7562,-35.789 42.6887,-46.3836 49.3104,-44.1133"/>
</g>
<!-- change&#45;&gt;source -->
<g id="edge7" class="edge"><title>change&#45;&gt;source</title>
<path fill="none" stroke="black" d="M128,-36.0493C128,-62.7084 128,-115.885 128,-161 128,-235 128,-235 128,-235 128,-275.721 117.152,-321.872 109.208,-350.208"/>
<polygon fill="black" stroke="black" points="105.75,-349.569 106.334,-360.148 112.474,-351.513 105.75,-349.569"/>
</g>
</g>
</svg>
