<?xml version="1.0" encoding="UTF-8" standalone="no"?>
<!DOCTYPE svg PUBLIC "-//W3C//DTD SVG 1.1//EN"
 "http://www.w3.org/Graphics/SVG/1.1/DTD/svg11.dtd">
<!-- Generated by graphviz version 2.43.0 (0)
 -->
<!-- Title: lifecycle Pages: 1 -->
<svg width="386pt" height="231pt"
 viewBox="0.00 0.00 385.69 231.48" xmlns="http://www.w3.org/2000/svg" xmlns:xlink="http://www.w3.org/1999/xlink">
<g id="graph0" class="graph" transform="scale(1 1) rotate(0) translate(4 227.48)">
<title>lifecycle</title>
<polygon fill="white" stroke="transparent" points="-4,4 -4,-227.48 381.69,-227.48 381.69,4 -4,4"/>
<!-- contribute -->
<g id="node1" class="node">
<title>contribute</title>
<ellipse fill="none" stroke="black" cx="59.14" cy="-84.54" rx="59.29" ry="18"/>
<text text-anchor="middle" x="59.14" y="-80.84" font-family="Times,serif" font-size="14.00">contribute</text>
</g>
<!-- source -->
<g id="node2" class="node">
<title>source</title>
<ellipse fill="none" stroke="black" cx="133.59" cy="-105.37" rx="41.69" ry="18"/>
<text text-anchor="middle" x="133.59" y="-101.67" font-family="Times,serif" font-size="14.00">source</text>
</g>
<!-- contribute&#45;&gt;source -->
<g id="edge1" class="edge">
<title>contribute&#45;&gt;source</title>
<path fill="none" stroke="black" d="M102.88,-96.78C102.94,-96.79 103.01,-96.81 103.07,-96.83"/>
<polygon fill="black" stroke="black" points="92.68,-97.55 103.26,-96.88 94.57,-90.81 92.68,-97.55"/>
</g>
<!-- build -->
<g id="node3" class="node">
<title>build</title>
<ellipse fill="none" stroke="black" cx="154.88" cy="-185.08" rx="34.39" ry="18"/>
<text text-anchor="middle" x="154.88" y="-181.38" font-family="Times,serif" font-size="14.00">build</text>
</g>
<!-- source&#45;&gt;build -->
<g id="edge2" class="edge">
<title>source&#45;&gt;build</title>
<path fill="none" stroke="black" d="M138.42,-123.46C141.09,-133.45 144.46,-146.06 147.45,-157.28"/>
<polygon fill="black" stroke="black" points="144.11,-158.31 150.07,-167.06 150.87,-156.5 144.11,-158.31"/>
</g>
<!-- deploy -->
<g id="node4" class="node">
<title>deploy</title>
<ellipse fill="none" stroke="black" cx="233.14" cy="-205.48" rx="41.69" ry="18"/>
<text text-anchor="middle" x="233.14" y="-201.78" font-family="Times,serif" font-size="14.00">deploy</text>
</g>
<!-- build&#45;&gt;deploy -->
<g id="edge3" class="edge">
<title>build&#45;&gt;deploy</title>
<path fill="none" stroke="black" d="M185.81,-193.14C186.4,-193.29 186.99,-193.45 187.58,-193.6"/>
<polygon fill="black" stroke="black" points="186.7,-196.99 197.26,-196.12 188.47,-190.22 186.7,-196.99"/>
</g>
<!-- upgrade -->
<g id="node5" class="node">
<title>upgrade</title>
<ellipse fill="none" stroke="black" cx="293.43" cy="-151.55" rx="49.29" ry="18"/>
<text text-anchor="middle" x="293.43" y="-147.85" font-family="Times,serif" font-size="14.00">upgrade</text>
</g>
<!-- deploy&#45;&gt;upgrade -->
<g id="edge4" class="edge">
<title>deploy&#45;&gt;upgrade</title>
<path fill="none" stroke="black" d="M251.56,-189C256.49,-184.59 261.92,-179.74 267.19,-175.03"/>
<polygon fill="black" stroke="black" points="269.59,-177.57 274.71,-168.3 264.93,-172.35 269.59,-177.57"/>
</g>
<!-- operate -->
<g id="node6" class="node">
<title>operate</title>
<ellipse fill="none" stroke="black" cx="275.88" cy="-70.97" rx="46.29" ry="18"/>
<text text-anchor="middle" x="275.88" y="-67.27" font-family="Times,serif" font-size="14.00">operate</text>
</g>
<!-- upgrade&#45;&gt;operate -->
<g id="edge5" class="edge">
<title>upgrade&#45;&gt;operate</title>
<path fill="none" stroke="black" d="M289.45,-133.27C287.25,-123.17 284.47,-110.41 282,-99.08"/>
<polygon fill="black" stroke="black" points="285.39,-98.21 279.85,-89.18 278.56,-99.7 285.39,-98.21"/>
</g>
<!-- change -->
<g id="node7" class="node">
<title>change</title>
<ellipse fill="none" stroke="black" cx="196.1" cy="-52.58" rx="44.39" ry="18"/>
<text text-anchor="middle" x="196.1" y="-48.88" font-family="Times,serif" font-size="14.00">change</text>
</g>
<!-- operate&#45;&gt;change -->
<g id="edge6" class="edge">
<title>operate&#45;&gt;change</title>
<path fill="none" stroke="black" d="M235.99,-61.77C235.87,-61.75 235.76,-61.72 235.64,-61.69"/>
<polygon fill="black" stroke="black" points="245.12,-60.29 234.59,-61.45 243.55,-67.11 245.12,-60.29"/>
</g>
<!-- remove -->
<g id="node8" class="node">
<title>remove</title>
<ellipse fill="none" stroke="black" cx="332.19" cy="-18" rx="45.49" ry="18"/>
<text text-anchor="middle" x="332.19" y="-14.3" font-family="Times,serif" font-size="14.00">remove</text>
</g>
<!-- operate&#45;&gt;remove -->
<g id="edge8" class="edge">
<title>operate&#45;&gt;remove</title>
<path fill="none" stroke="black" d="M293.7,-54.21C297.91,-50.25 302.48,-45.95 306.95,-41.75"/>
<polygon fill="black" stroke="black" points="309.41,-44.23 314.3,-34.83 304.62,-39.14 309.41,-44.23"/>
</g>
<!-- change&#45;&gt;source -->
<g id="edge7" class="edge">
<title>change&#45;&gt;source</title>
<path fill="none" stroke="black" d="M176.67,-68.99C171.56,-73.3 165.96,-78.03 160.54,-82.61"/>
<polygon fill="black" stroke="black" points="158.18,-80.02 152.8,-89.15 162.7,-85.37 158.18,-80.02"/>
</g>
</g>
</svg>
