<?xml version="1.0" encoding="UTF-8" standalone="no"?>
<!DOCTYPE svg PUBLIC "-//W3C//DTD SVG 1.1//EN"
 "http://www.w3.org/Graphics/SVG/1.1/DTD/svg11.dtd">
<!-- Generated by graphviz version 2.36.0 (20140111.2315)
 -->
<!-- Title: lifecycle Pages: 1 -->
<svg width="365pt" height="231pt"
 viewBox="0.00 0.00 364.89 231.48" xmlns="http://www.w3.org/2000/svg" xmlns:xlink="http://www.w3.org/1999/xlink">
<g id="graph0" class="graph" transform="scale(1 1) rotate(0) translate(4 227.475)">
<title>lifecycle</title>
<polygon fill="white" stroke="none" points="-4,4 -4,-227.475 360.892,-227.475 360.892,4 -4,4"/>
<!-- contribute -->
<g id="node1" class="node"><title>contribute</title>
<ellipse fill="none" stroke="black" cx="46.1459" cy="-84.5359" rx="46.2923" ry="18"/>
<text text-anchor="middle" x="46.1459" y="-80.8359" font-family="Times,serif" font-size="14.00">contribute</text>
</g>
<!-- source -->
<g id="node2" class="node"><title>source</title>
<ellipse fill="none" stroke="black" cx="120.59" cy="-105.371" rx="33.5952" ry="18"/>
<text text-anchor="middle" x="120.59" y="-101.671" font-family="Times,serif" font-size="14.00">source</text>
</g>
<!-- contribute&#45;&gt;source -->
<g id="edge1" class="edge"><title>contribute&#45;&gt;source</title>
<path fill="none" stroke="black" d="M83.8043,-95.0757C83.9396,-95.1136 84.0748,-95.1514 84.21,-95.1893"/>
<polygon fill="black" stroke="black" points="79.6873,-97.5579 90.2606,-96.8827 81.5741,-90.8169 79.6873,-97.5579"/>
</g>
<!-- build -->
<g id="node3" class="node"><title>build</title>
<ellipse fill="none" stroke="black" cx="141.882" cy="-185.08" rx="28.6953" ry="18"/>
<text text-anchor="middle" x="141.882" y="-181.38" font-family="Times,serif" font-size="14.00">build</text>
</g>
<!-- source&#45;&gt;build -->
<g id="edge2" class="edge"><title>source&#45;&gt;build</title>
<path fill="none" stroke="black" d="M125.422,-123.458C128.09,-133.446 131.46,-146.064 134.455,-157.277"/>
<polygon fill="black" stroke="black" points="131.107,-158.306 137.07,-167.064 137.87,-156.5 131.107,-158.306"/>
</g>
<!-- deploy -->
<g id="node4" class="node"><title>deploy</title>
<ellipse fill="none" stroke="black" cx="220.144" cy="-205.475" rx="34.394" ry="18"/>
<text text-anchor="middle" x="220.144" y="-201.775" font-family="Times,serif" font-size="14.00">deploy</text>
</g>
<!-- build&#45;&gt;deploy -->
<g id="edge3" class="edge"><title>build&#45;&gt;deploy</title>
<path fill="none" stroke="black" d="M168.378,-191.985C171.912,-192.905 175.599,-193.867 179.308,-194.833"/>
<polygon fill="black" stroke="black" points="178.52,-198.245 189.08,-197.38 180.285,-191.471 178.52,-198.245"/>
</g>
<!-- upgrade -->
<g id="node5" class="node"><title>upgrade</title>
<ellipse fill="none" stroke="black" cx="280.435" cy="-151.552" rx="38.9931" ry="18"/>
<text text-anchor="middle" x="280.435" y="-147.852" font-family="Times,serif" font-size="14.00">upgrade</text>
</g>
<!-- deploy&#45;&gt;upgrade -->
<g id="edge4" class="edge"><title>deploy&#45;&gt;upgrade</title>
<path fill="none" stroke="black" d="M237.583,-189.878C242.939,-185.088 248.949,-179.712 254.736,-174.537"/>
<polygon fill="black" stroke="black" points="257.286,-176.951 262.407,-167.676 252.62,-171.734 257.286,-176.951"/>
</g>
<!-- operate -->
<g id="node6" class="node"><title>operate</title>
<ellipse fill="none" stroke="black" cx="262.88" cy="-70.9721" rx="36.2938" ry="18"/>
<text text-anchor="middle" x="262.88" y="-67.2721" font-family="Times,serif" font-size="14.00">operate</text>
</g>
<!-- upgrade&#45;&gt;operate -->
<g id="edge5" class="edge"><title>upgrade&#45;&gt;operate</title>
<path fill="none" stroke="black" d="M276.451,-133.267C274.236,-123.1 271.433,-110.235 268.951,-98.8395"/>
<polygon fill="black" stroke="black" points="272.336,-97.9328 266.787,-88.9071 265.496,-99.4229 272.336,-97.9328"/>
</g>
<!-- change -->
<g id="node7" class="node"><title>change</title>
<ellipse fill="none" stroke="black" cx="183.105" cy="-52.5771" rx="35.9954" ry="18"/>
<text text-anchor="middle" x="183.105" y="-48.8771" font-family="Times,serif" font-size="14.00">change</text>
</g>
<!-- operate&#45;&gt;change -->
<g id="edge6" class="edge"><title>operate&#45;&gt;change</title>
<path fill="none" stroke="black" d="M229.51,-63.2776C228.238,-62.9841 226.956,-62.6885 225.67,-62.392"/>
<polygon fill="black" stroke="black" points="226.36,-58.9594 215.83,-60.123 224.787,-65.7804 226.36,-58.9594"/>
</g>
<!-- remove -->
<g id="node8" class="node"><title>remove</title>
<ellipse fill="none" stroke="black" cx="319.196" cy="-18" rx="37.8943" ry="18"/>
<text text-anchor="middle" x="319.196" y="-14.3" font-family="Times,serif" font-size="14.00">remove</text>
</g>
<!-- operate&#45;&gt;remove -->
<g id="edge8" class="edge"><title>operate&#45;&gt;remove</title>
<path fill="none" stroke="black" d="M280.082,-54.7909C284.668,-50.478 289.712,-45.7332 294.61,-41.1263"/>
<polygon fill="black" stroke="black" points="297.212,-43.4831 302.098,-34.0821 292.416,-38.3843 297.212,-43.4831"/>
</g>
<!-- change&#45;&gt;source -->
<g id="edge7" class="edge"><title>change&#45;&gt;source</title>
<path fill="none" stroke="black" d="M164.687,-68.1316C159.041,-72.8994 152.719,-78.2382 146.664,-83.3517"/>
<polygon fill="black" stroke="black" points="144.044,-80.9839 138.662,-90.11 148.56,-86.3319 144.044,-80.9839"/>
</g>
</g>
</svg>
