<?xml version="1.0" encoding="UTF-8" standalone="no"?>
<!DOCTYPE svg PUBLIC "-//W3C//DTD SVG 1.1//EN"
 "http://www.w3.org/Graphics/SVG/1.1/DTD/svg11.dtd">
<!-- Generated by graphviz version 2.43.0 (0)
 -->
<!-- Title: lifecycle Pages: 1 -->
<svg width="341pt" height="228pt"
 viewBox="0.00 0.00 340.78 227.86" xmlns="http://www.w3.org/2000/svg" xmlns:xlink="http://www.w3.org/1999/xlink">
<g id="graph0" class="graph" transform="scale(1 1) rotate(0) translate(4 223.86)">
<title>lifecycle</title>
<polygon fill="white" stroke="transparent" points="-4,4 -4,-223.86 336.78,-223.86 336.78,4 -4,4"/>
<!-- contribute -->
<g id="node1" class="node">
<title>contribute</title>
<polygon fill="lightblue" stroke="lightblue" points="65,-101.25 0,-101.25 0,-65.25 65,-65.25 65,-101.25"/>
<text text-anchor="middle" x="32.5" y="-79.55" font-family="Times,serif" font-size="14.00">contribute</text>
</g>
<!-- source -->
<g id="node2" class="node">
<title>source</title>
<polygon fill="lightblue" stroke="lightblue" points="138.01,-121.68 73.01,-121.68 73.01,-85.68 138.01,-85.68 138.01,-121.68"/>
<text text-anchor="middle" x="105.51" y="-99.98" font-family="Times,serif" font-size="14.00">source</text>
</g>
<!-- contribute&#45;&gt;source -->
<g id="edge1" class="edge">
<title>contribute&#45;&gt;source</title>
<path fill="none" stroke="black" d="M65.16,-92.39C65.32,-92.44 65.48,-92.48 65.64,-92.53"/>
<polygon fill="black" stroke="black" points="62.36,-95.24 72.93,-94.57 64.24,-88.5 62.36,-95.24"/>
</g>
<!-- build -->
<g id="node3" class="node">
<title>build</title>
<polygon fill="lightblue" stroke="lightblue" points="158.89,-199.85 93.89,-199.85 93.89,-163.85 158.89,-163.85 158.89,-199.85"/>
<text text-anchor="middle" x="126.39" y="-178.15" font-family="Times,serif" font-size="14.00">build</text>
</g>
<!-- source&#45;&gt;build -->
<g id="edge2" class="edge">
<title>source&#45;&gt;build</title>
<path fill="none" stroke="black" d="M110.35,-121.81C112.91,-131.38 116.1,-143.33 118.96,-154.05"/>
<polygon fill="black" stroke="black" points="115.61,-155.06 121.57,-163.82 122.37,-153.26 115.61,-155.06"/>
</g>
<!-- deploy -->
<g id="node4" class="node">
<title>deploy</title>
<polygon fill="lightblue" stroke="lightblue" points="235.64,-219.86 170.64,-219.86 170.64,-183.86 235.64,-183.86 235.64,-219.86"/>
<text text-anchor="middle" x="203.14" y="-198.16" font-family="Times,serif" font-size="14.00">deploy</text>
</g>
<!-- build&#45;&gt;deploy -->
<g id="edge3" class="edge">
<title>build&#45;&gt;deploy</title>
<path fill="none" stroke="black" d="M158.94,-190.34C159.41,-190.46 159.88,-190.58 160.35,-190.7"/>
<polygon fill="black" stroke="black" points="159.73,-194.16 170.29,-193.3 161.5,-187.39 159.73,-194.16"/>
</g>
<!-- upgrade -->
<g id="node5" class="node">
<title>upgrade</title>
<polygon fill="lightblue" stroke="lightblue" points="294.77,-166.97 229.77,-166.97 229.77,-130.97 294.77,-130.97 294.77,-166.97"/>
<text text-anchor="middle" x="262.27" y="-145.27" font-family="Times,serif" font-size="14.00">upgrade</text>
</g>
<!-- deploy&#45;&gt;upgrade -->
<g id="edge4" class="edge">
<title>deploy&#45;&gt;upgrade</title>
<path fill="none" stroke="black" d="M223.49,-183.66C227.06,-180.46 230.83,-177.09 234.56,-173.76"/>
<polygon fill="black" stroke="black" points="236.96,-176.3 242.08,-167.03 232.29,-171.09 236.96,-176.3"/>
</g>
<!-- operate -->
<g id="node6" class="node">
<title>operate</title>
<polygon fill="lightblue" stroke="lightblue" points="277.55,-87.95 212.55,-87.95 212.55,-51.95 277.55,-51.95 277.55,-87.95"/>
<text text-anchor="middle" x="245.05" y="-66.25" font-family="Times,serif" font-size="14.00">operate</text>
</g>
<!-- upgrade&#45;&gt;operate -->
<g id="edge5" class="edge">
<title>upgrade&#45;&gt;operate</title>
<path fill="none" stroke="black" d="M258.27,-130.65C256.17,-120.97 253.53,-108.89 251.17,-98.06"/>
<polygon fill="black" stroke="black" points="254.57,-97.2 249.02,-88.18 247.73,-98.69 254.57,-97.2"/>
</g>
<!-- change -->
<g id="node7" class="node">
<title>change</title>
<polygon fill="lightblue" stroke="lightblue" points="199.32,-69.91 134.32,-69.91 134.32,-33.91 199.32,-33.91 199.32,-69.91"/>
<text text-anchor="middle" x="166.82" y="-48.21" font-family="Times,serif" font-size="14.00">change</text>
</g>
<!-- operate&#45;&gt;change -->
<g id="edge6" class="edge">
<title>operate&#45;&gt;change</title>
<path fill="none" stroke="black" d="M212.32,-62.4C211.39,-62.19 210.45,-61.97 209.51,-61.75"/>
<polygon fill="black" stroke="black" points="209.94,-58.26 199.41,-59.43 208.37,-65.08 209.94,-58.26"/>
</g>
<!-- remove -->
<g id="node8" class="node">
<title>remove</title>
<polygon fill="lightblue" stroke="lightblue" points="332.78,-36 267.78,-36 267.78,0 332.78,0 332.78,-36"/>
<text text-anchor="middle" x="300.28" y="-14.3" font-family="Times,serif" font-size="14.00">remove</text>
</g>
<!-- operate&#45;&gt;remove -->
<g id="edge8" class="edge">
<title>operate&#45;&gt;remove</title>
<path fill="none" stroke="black" d="M264.37,-51.78C267.29,-49.03 270.35,-46.15 273.41,-43.28"/>
<polygon fill="black" stroke="black" points="275.99,-45.65 280.88,-36.25 271.2,-40.55 275.99,-45.65"/>
</g>
<!-- change&#45;&gt;source -->
<g id="edge7" class="edge">
<title>change&#45;&gt;source</title>
<path fill="none" stroke="black" d="M145.37,-70.02C141.94,-72.92 138.34,-75.96 134.76,-78.98"/>
<polygon fill="black" stroke="black" points="132.42,-76.37 127.04,-85.5 136.94,-81.72 132.42,-76.37"/>
</g>
</g>
</svg>
