<?xml version="1.0" encoding="UTF-8" standalone="no"?>
<!DOCTYPE svg PUBLIC "-//W3C//DTD SVG 1.1//EN"
 "http://www.w3.org/Graphics/SVG/1.1/DTD/svg11.dtd">
<!-- Generated by graphviz version 2.36.0 (20140111.2315)
 -->
<!-- Title: lifecycle Pages: 1 -->
<svg width="421pt" height="322pt"
 viewBox="0.00 0.00 420.92 322.44" xmlns="http://www.w3.org/2000/svg" xmlns:xlink="http://www.w3.org/1999/xlink">
<g id="graph0" class="graph" transform="scale(1 1) rotate(0) translate(4 318.443)">
<title>lifecycle</title>
<polygon fill="white" stroke="none" points="-4,4 -4,-318.443 416.917,-318.443 416.917,4 -4,4"/>
<!-- contribute -->
<g id="node1" class="node"><title>contribute</title>
<polygon fill="lightblue" stroke="lightblue" points="65,-59.9186 0,-59.9186 0,-23.9186 65,-23.9186 65,-59.9186"/>
<text text-anchor="middle" x="32.5" y="-38.2186" font-family="Times,serif" font-size="14.00">contribute</text>
</g>
<!-- source -->
<g id="node2" class="node"><title>source</title>
<polygon fill="lightblue" stroke="lightblue" points="154.01,-98.4031 89.0104,-98.4031 89.0104,-62.4031 154.01,-62.4031 154.01,-98.4031"/>
<text text-anchor="middle" x="121.51" y="-76.7031" font-family="Times,serif" font-size="14.00">source</text>
</g>
<!-- contribute&#45;&gt;source -->
<g id="edge1" class="edge"><title>contribute&#45;&gt;source</title>
<path fill="none" stroke="black" d="M65.1388,-56.0303C69.8554,-58.0696 74.7639,-60.1918 79.6304,-62.2958"/>
<polygon fill="black" stroke="black" points="78.3078,-65.5371 88.8756,-66.2931 81.0858,-59.1119 78.3078,-65.5371"/>
</g>
<!-- build -->
<g id="node3" class="node"><title>build</title>
<polygon fill="lightblue" stroke="lightblue" points="166.709,-200.664 101.709,-200.664 101.709,-164.664 166.709,-164.664 166.709,-200.664"/>
<text text-anchor="middle" x="134.209" y="-178.964" font-family="Times,serif" font-size="14.00">build</text>
</g>
<!-- source&#45;&gt;build -->
<g id="edge2" class="edge"><title>source&#45;&gt;build</title>
<path fill="none" stroke="black" d="M123.781,-98.6853C125.704,-114.172 128.493,-136.632 130.702,-154.428"/>
<polygon fill="black" stroke="black" points="127.252,-155.047 131.958,-164.54 134.199,-154.185 127.252,-155.047"/>
</g>
<!-- release -->
<g id="node4" class="node"><title>release</title>
<polygon fill="lightblue" stroke="lightblue" points="247.358,-260.2 182.358,-260.2 182.358,-224.2 247.358,-224.2 247.358,-260.2"/>
<text text-anchor="middle" x="214.858" y="-238.5" font-family="Times,serif" font-size="14.00">release</text>
</g>
<!-- build&#45;&gt;release -->
<g id="edge3" class="edge"><title>build&#45;&gt;release</title>
<path fill="none" stroke="black" d="M158.844,-200.85C166.192,-206.275 174.364,-212.307 182.143,-218.05"/>
<polygon fill="black" stroke="black" points="180.249,-221.002 190.373,-224.125 184.407,-215.37 180.249,-221.002"/>
</g>
<!-- deploy -->
<g id="node5" class="node"><title>deploy</title>
<polygon fill="lightblue" stroke="lightblue" points="348.715,-241.764 283.715,-241.764 283.715,-205.764 348.715,-205.764 348.715,-241.764"/>
<text text-anchor="middle" x="316.215" y="-220.064" font-family="Times,serif" font-size="14.00">deploy</text>
</g>
<!-- release&#45;&gt;deploy -->
<g id="edge4" class="edge"><title>release&#45;&gt;deploy</title>
<path fill="none" stroke="black" d="M247.486,-236.266C255.805,-234.752 264.87,-233.104 273.607,-231.514"/>
<polygon fill="black" stroke="black" points="274.436,-234.921 283.648,-229.688 273.183,-228.034 274.436,-234.921"/>
</g>
<!-- upgrade -->
<g id="node6" class="node"><title>upgrade</title>
<polygon fill="lightblue" stroke="lightblue" points="383.793,-145.055 318.793,-145.055 318.793,-109.055 383.793,-109.055 383.793,-145.055"/>
<text text-anchor="middle" x="351.293" y="-123.355" font-family="Times,serif" font-size="14.00">upgrade</text>
</g>
<!-- deploy&#45;&gt;upgrade -->
<g id="edge5" class="edge"><title>deploy&#45;&gt;upgrade</title>
<path fill="none" stroke="black" d="M322.813,-205.574C328.006,-191.256 335.331,-171.062 341.252,-154.739"/>
<polygon fill="black" stroke="black" points="344.605,-155.758 344.725,-145.164 338.025,-153.371 344.605,-155.758"/>
</g>
<!-- remove -->
<g id="node9" class="node"><title>remove</title>
<polygon fill="lightblue" stroke="lightblue" points="412.917,-314.443 347.917,-314.443 347.917,-278.443 412.917,-278.443 412.917,-314.443"/>
<text text-anchor="middle" x="380.417" y="-292.743" font-family="Times,serif" font-size="14.00">remove</text>
</g>
<!-- deploy&#45;&gt;remove -->
<g id="edge9" class="edge"><title>deploy&#45;&gt;remove</title>
<path fill="none" stroke="black" d="M332.416,-242.104C340.077,-250.777 349.356,-261.281 357.705,-270.732"/>
<polygon fill="black" stroke="black" points="355.2,-273.184 364.444,-278.361 360.446,-268.549 355.2,-273.184"/>
</g>
<!-- operate -->
<g id="node7" class="node"><title>operate</title>
<polygon fill="lightblue" stroke="lightblue" points="334.317,-57.2547 269.317,-57.2547 269.317,-21.2547 334.317,-21.2547 334.317,-57.2547"/>
<text text-anchor="middle" x="301.817" y="-35.5547" font-family="Times,serif" font-size="14.00">operate</text>
</g>
<!-- upgrade&#45;&gt;operate -->
<g id="edge6" class="edge"><title>upgrade&#45;&gt;operate</title>
<path fill="none" stroke="black" d="M341.042,-108.863C334.143,-96.6193 324.922,-80.257 317.155,-66.4726"/>
<polygon fill="black" stroke="black" points="320.014,-64.4174 312.055,-57.4236 313.916,-67.8539 320.014,-64.4174"/>
</g>
<!-- change -->
<g id="node8" class="node"><title>change</title>
<polygon fill="lightblue" stroke="lightblue" points="235.778,-36 170.778,-36 170.778,-0 235.778,-0 235.778,-36"/>
<text text-anchor="middle" x="203.278" y="-14.3" font-family="Times,serif" font-size="14.00">change</text>
</g>
<!-- operate&#45;&gt;change -->
<g id="edge7" class="edge"><title>operate&#45;&gt;change</title>
<path fill="none" stroke="black" d="M269.279,-32.2362C261.711,-30.6038 253.545,-28.8425 245.623,-27.1338"/>
<polygon fill="black" stroke="black" points="246.296,-23.6984 235.782,-25.0111 244.82,-30.541 246.296,-23.6984"/>
</g>
<!-- change&#45;&gt;source -->
<g id="edge8" class="edge"><title>change&#45;&gt;source</title>
<path fill="none" stroke="black" d="M179.628,-36.0496C171.407,-42.3236 162.048,-49.466 153.279,-56.1585"/>
<polygon fill="black" stroke="black" points="150.934,-53.5449 145.108,-62.3941 155.181,-59.1096 150.934,-53.5449"/>
</g>
</g>
</svg>
