<?xml version="1.0" encoding="UTF-8" standalone="no"?>
<!DOCTYPE svg PUBLIC "-//W3C//DTD SVG 1.1//EN"
 "http://www.w3.org/Graphics/SVG/1.1/DTD/svg11.dtd">
<!-- Generated by graphviz version 2.43.0 (0)
 -->
<!-- Title: lifecycle Pages: 1 -->
<svg width="421pt" height="322pt"
 viewBox="0.00 0.00 420.92 322.44" xmlns="http://www.w3.org/2000/svg" xmlns:xlink="http://www.w3.org/1999/xlink">
<g id="graph0" class="graph" transform="scale(1 1) rotate(0) translate(4 318.44)">
<title>lifecycle</title>
<polygon fill="white" stroke="transparent" points="-4,4 -4,-318.44 416.92,-318.44 416.92,4 -4,4"/>
<g id="clust1" class="cluster">
<title>cluster_2</title>
<polygon fill="none" stroke="black" points="89.01,0 89.01,-260.2 383.79,-260.2 383.79,0 89.01,0"/>
</g>
<!-- contribute -->
<g id="node1" class="node">
<title>contribute</title>
<polygon fill="lightblue" stroke="lightblue" points="65,-59.92 0,-59.92 0,-23.92 65,-23.92 65,-59.92"/>
<text text-anchor="middle" x="32.5" y="-38.22" font-family="Times,serif" font-size="14.00">contribute</text>
</g>
<!-- source -->
<g id="node2" class="node">
<title>source</title>
<polygon fill="lightblue" stroke="lightblue" points="154.01,-98.4 89.01,-98.4 89.01,-62.4 154.01,-62.4 154.01,-98.4"/>
<text text-anchor="middle" x="121.51" y="-76.7" font-family="Times,serif" font-size="14.00">source</text>
</g>
<!-- contribute&#45;&gt;source -->
<g id="edge1" class="edge">
<title>contribute&#45;&gt;source</title>
<path fill="none" stroke="black" d="M65.14,-56.03C69.86,-58.07 74.76,-60.19 79.63,-62.3"/>
<polygon fill="black" stroke="black" points="78.31,-65.54 88.88,-66.29 81.09,-59.11 78.31,-65.54"/>
</g>
<!-- build -->
<g id="node3" class="node">
<title>build</title>
<polygon fill="lightblue" stroke="lightblue" points="166.71,-200.66 101.71,-200.66 101.71,-164.66 166.71,-164.66 166.71,-200.66"/>
<text text-anchor="middle" x="134.21" y="-178.96" font-family="Times,serif" font-size="14.00">build</text>
</g>
<!-- source&#45;&gt;build -->
<g id="edge2" class="edge">
<title>source&#45;&gt;build</title>
<path fill="none" stroke="black" d="M123.78,-98.69C125.7,-114.17 128.49,-136.63 130.7,-154.43"/>
<polygon fill="black" stroke="black" points="127.25,-155.05 131.96,-164.54 134.2,-154.18 127.25,-155.05"/>
</g>
<!-- release -->
<g id="node4" class="node">
<title>release</title>
<polygon fill="lightblue" stroke="lightblue" points="247.36,-260.2 182.36,-260.2 182.36,-224.2 247.36,-224.2 247.36,-260.2"/>
<text text-anchor="middle" x="214.86" y="-238.5" font-family="Times,serif" font-size="14.00">release</text>
</g>
<!-- build&#45;&gt;release -->
<g id="edge3" class="edge">
<title>build&#45;&gt;release</title>
<path fill="none" stroke="black" d="M158.84,-200.85C166.19,-206.27 174.36,-212.31 182.14,-218.05"/>
<polygon fill="black" stroke="black" points="180.25,-221 190.37,-224.13 184.41,-215.37 180.25,-221"/>
</g>
<!-- deploy -->
<g id="node5" class="node">
<title>deploy</title>
<polygon fill="lightblue" stroke="lightblue" points="348.71,-241.76 283.71,-241.76 283.71,-205.76 348.71,-205.76 348.71,-241.76"/>
<text text-anchor="middle" x="316.21" y="-220.06" font-family="Times,serif" font-size="14.00">deploy</text>
</g>
<!-- release&#45;&gt;deploy -->
<g id="edge4" class="edge">
<title>release&#45;&gt;deploy</title>
<path fill="none" stroke="black" d="M247.49,-236.27C255.8,-234.75 264.87,-233.1 273.61,-231.51"/>
<polygon fill="black" stroke="black" points="274.44,-234.92 283.65,-229.69 273.18,-228.03 274.44,-234.92"/>
</g>
<!-- upgrade -->
<g id="node6" class="node">
<title>upgrade</title>
<polygon fill="lightblue" stroke="lightblue" points="383.79,-145.05 318.79,-145.05 318.79,-109.05 383.79,-109.05 383.79,-145.05"/>
<text text-anchor="middle" x="351.29" y="-123.35" font-family="Times,serif" font-size="14.00">upgrade</text>
</g>
<!-- deploy&#45;&gt;upgrade -->
<g id="edge5" class="edge">
<title>deploy&#45;&gt;upgrade</title>
<path fill="none" stroke="black" d="M322.81,-205.57C328.01,-191.26 335.33,-171.06 341.25,-154.74"/>
<polygon fill="black" stroke="black" points="344.61,-155.76 344.72,-145.16 338.02,-153.37 344.61,-155.76"/>
</g>
<!-- remove -->
<g id="node9" class="node">
<title>remove</title>
<polygon fill="lightblue" stroke="lightblue" points="412.92,-314.44 347.92,-314.44 347.92,-278.44 412.92,-278.44 412.92,-314.44"/>
<text text-anchor="middle" x="380.42" y="-292.74" font-family="Times,serif" font-size="14.00">remove</text>
</g>
<!-- deploy&#45;&gt;remove -->
<g id="edge9" class="edge">
<title>deploy&#45;&gt;remove</title>
<path fill="none" stroke="black" d="M332.42,-242.1C340.08,-250.78 349.36,-261.28 357.7,-270.73"/>
<polygon fill="black" stroke="black" points="355.2,-273.18 364.44,-278.36 360.45,-268.55 355.2,-273.18"/>
</g>
<!-- operate -->
<g id="node7" class="node">
<title>operate</title>
<polygon fill="lightblue" stroke="lightblue" points="334.32,-57.25 269.32,-57.25 269.32,-21.25 334.32,-21.25 334.32,-57.25"/>
<text text-anchor="middle" x="301.82" y="-35.55" font-family="Times,serif" font-size="14.00">operate</text>
</g>
<!-- upgrade&#45;&gt;operate -->
<g id="edge6" class="edge">
<title>upgrade&#45;&gt;operate</title>
<path fill="none" stroke="black" d="M341.04,-108.86C334.14,-96.62 324.92,-80.26 317.15,-66.47"/>
<polygon fill="black" stroke="black" points="320.01,-64.42 312.06,-57.42 313.92,-67.85 320.01,-64.42"/>
</g>
<!-- change -->
<g id="node8" class="node">
<title>change</title>
<polygon fill="lightblue" stroke="lightblue" points="235.78,-36 170.78,-36 170.78,0 235.78,0 235.78,-36"/>
<text text-anchor="middle" x="203.28" y="-14.3" font-family="Times,serif" font-size="14.00">change</text>
</g>
<!-- operate&#45;&gt;change -->
<g id="edge7" class="edge">
<title>operate&#45;&gt;change</title>
<path fill="none" stroke="black" d="M269.28,-32.24C261.71,-30.6 253.55,-28.84 245.62,-27.13"/>
<polygon fill="black" stroke="black" points="246.3,-23.7 235.78,-25.01 244.82,-30.54 246.3,-23.7"/>
</g>
<!-- change&#45;&gt;source -->
<g id="edge8" class="edge">
<title>change&#45;&gt;source</title>
<path fill="none" stroke="black" d="M179.63,-36.05C171.41,-42.32 162.05,-49.47 153.28,-56.16"/>
<polygon fill="black" stroke="black" points="150.93,-53.54 145.11,-62.39 155.18,-59.11 150.93,-53.54"/>
</g>
</g>
</svg>
