<?xml version="1.0" encoding="UTF-8" standalone="no"?>
<!DOCTYPE svg PUBLIC "-//W3C//DTD SVG 1.1//EN"
 "http://www.w3.org/Graphics/SVG/1.1/DTD/svg11.dtd">
<!-- Generated by graphviz version 2.43.0 (0)
 -->
<!-- Title: lifecycle Pages: 1 -->
<svg width="414pt" height="278pt"
 viewBox="0.00 0.00 414.30 278.36" xmlns="http://www.w3.org/2000/svg" xmlns:xlink="http://www.w3.org/1999/xlink">
<g id="graph0" class="graph" transform="scale(1 1) rotate(0) translate(4 274.36)">
<title>lifecycle</title>
<polygon fill="white" stroke="transparent" points="-4,4 -4,-274.36 410.3,-274.36 410.3,4 -4,4"/>
<!-- contribute -->
<g id="node1" class="node">
<title>contribute</title>
<polygon fill="lightblue" stroke="lightblue" points="65,-119.21 0,-119.21 0,-83.21 65,-83.21 65,-119.21"/>
<text text-anchor="middle" x="32.5" y="-97.51" font-family="Times,serif" font-size="14.00">contribute</text>
</g>
<!-- source -->
<g id="node2" class="node">
<title>source</title>
<polygon fill="lightblue" stroke="lightblue" points="158.06,-145.25 93.06,-145.25 93.06,-109.25 158.06,-109.25 158.06,-145.25"/>
<text text-anchor="middle" x="125.56" y="-123.55" font-family="Times,serif" font-size="14.00">source</text>
</g>
<!-- contribute&#45;&gt;source -->
<g id="edge1" class="edge">
<title>contribute&#45;&gt;source</title>
<path fill="none" stroke="black" d="M65.05,-110.32C70.82,-111.94 76.91,-113.64 82.92,-115.32"/>
<polygon fill="black" stroke="black" points="82.3,-118.78 92.87,-118.1 84.18,-112.04 82.3,-118.78"/>
</g>
<!-- build -->
<g id="node3" class="node">
<title>build</title>
<polygon fill="lightblue" stroke="lightblue" points="184.69,-244.88 119.69,-244.88 119.69,-208.88 184.69,-208.88 184.69,-244.88"/>
<text text-anchor="middle" x="152.19" y="-223.18" font-family="Times,serif" font-size="14.00">build</text>
</g>
<!-- source&#45;&gt;build -->
<g id="edge2" class="edge">
<title>source&#45;&gt;build</title>
<path fill="none" stroke="black" d="M130.44,-145.52C134.42,-160.41 140.11,-181.68 144.66,-198.74"/>
<polygon fill="black" stroke="black" points="141.37,-199.96 147.33,-208.72 148.13,-198.16 141.37,-199.96"/>
</g>
<!-- deploy -->
<g id="node4" class="node">
<title>deploy</title>
<polygon fill="lightblue" stroke="lightblue" points="282.52,-270.36 217.52,-270.36 217.52,-234.36 282.52,-234.36 282.52,-270.36"/>
<text text-anchor="middle" x="250.02" y="-248.66" font-family="Times,serif" font-size="14.00">deploy</text>
</g>
<!-- build&#45;&gt;deploy -->
<g id="edge3" class="edge">
<title>build&#45;&gt;deploy</title>
<path fill="none" stroke="black" d="M184.76,-235.36C192.03,-237.26 199.84,-239.29 207.44,-241.27"/>
<polygon fill="black" stroke="black" points="206.69,-244.69 217.25,-243.82 208.45,-237.92 206.69,-244.69"/>
</g>
<!-- upgrade -->
<g id="node5" class="node">
<title>upgrade</title>
<polygon fill="lightblue" stroke="lightblue" points="357.87,-202.95 292.87,-202.95 292.87,-166.95 357.87,-166.95 357.87,-202.95"/>
<text text-anchor="middle" x="325.37" y="-181.25" font-family="Times,serif" font-size="14.00">upgrade</text>
</g>
<!-- deploy&#45;&gt;upgrade -->
<g id="edge4" class="edge">
<title>deploy&#45;&gt;upgrade</title>
<path fill="none" stroke="black" d="M270.21,-234.29C278.57,-226.81 288.41,-218.01 297.45,-209.93"/>
<polygon fill="black" stroke="black" points="300,-212.34 305.12,-203.06 295.34,-207.12 300,-212.34"/>
</g>
<!-- operate -->
<g id="node6" class="node">
<title>operate</title>
<polygon fill="lightblue" stroke="lightblue" points="335.92,-102.22 270.92,-102.22 270.92,-66.22 335.92,-66.22 335.92,-102.22"/>
<text text-anchor="middle" x="303.42" y="-80.52" font-family="Times,serif" font-size="14.00">operate</text>
</g>
<!-- upgrade&#45;&gt;operate -->
<g id="edge5" class="edge">
<title>upgrade&#45;&gt;operate</title>
<path fill="none" stroke="black" d="M321.45,-166.94C318.16,-151.85 313.4,-130.04 309.6,-112.61"/>
<polygon fill="black" stroke="black" points="312.93,-111.44 307.38,-102.41 306.09,-112.93 312.93,-111.44"/>
</g>
<!-- change -->
<g id="node7" class="node">
<title>change</title>
<polygon fill="lightblue" stroke="lightblue" points="236.19,-79.25 171.19,-79.25 171.19,-43.25 236.19,-43.25 236.19,-79.25"/>
<text text-anchor="middle" x="203.69" y="-57.55" font-family="Times,serif" font-size="14.00">change</text>
</g>
<!-- operate&#45;&gt;change -->
<g id="edge6" class="edge">
<title>operate&#45;&gt;change</title>
<path fill="none" stroke="black" d="M270.76,-76.7C262.93,-74.9 254.45,-72.94 246.24,-71.05"/>
<polygon fill="black" stroke="black" points="246.95,-67.62 236.42,-68.79 245.38,-74.44 246.95,-67.62"/>
</g>
<!-- remove -->
<g id="node8" class="node">
<title>remove</title>
<polygon fill="lightblue" stroke="lightblue" points="406.3,-36 341.3,-36 341.3,0 406.3,0 406.3,-36"/>
<text text-anchor="middle" x="373.8" y="-14.3" font-family="Times,serif" font-size="14.00">remove</text>
</g>
<!-- operate&#45;&gt;remove -->
<g id="edge8" class="edge">
<title>operate&#45;&gt;remove</title>
<path fill="none" stroke="black" d="M322.65,-66.13C330.18,-59.05 338.94,-50.8 347.06,-43.16"/>
<polygon fill="black" stroke="black" points="349.71,-45.48 354.59,-36.07 344.91,-40.38 349.71,-45.48"/>
</g>
<!-- change&#45;&gt;source -->
<g id="edge7" class="edge">
<title>change&#45;&gt;source</title>
<path fill="none" stroke="black" d="M182.34,-79.28C173.82,-86.49 163.86,-94.9 154.69,-102.64"/>
<polygon fill="black" stroke="black" points="152.26,-100.11 146.88,-109.24 156.78,-105.46 152.26,-100.11"/>
</g>
</g>
</svg>
