<?xml version="1.0" encoding="UTF-8" standalone="no"?>
<!DOCTYPE svg PUBLIC "-//W3C//DTD SVG 1.1//EN"
 "http://www.w3.org/Graphics/SVG/1.1/DTD/svg11.dtd">
<!-- Generated by graphviz version 2.43.0 (0)
 -->
<!-- Title: lifecycle Pages: 1 -->
<svg width="206pt" height="476pt"
 viewBox="0.00 0.00 205.69 476.00" xmlns="http://www.w3.org/2000/svg" xmlns:xlink="http://www.w3.org/1999/xlink">
<g id="graph0" class="graph" transform="scale(1 1) rotate(0) translate(4 472)">
<title>lifecycle</title>
<polygon fill="white" stroke="transparent" points="-4,4 -4,-472 201.69,-472 201.69,4 -4,4"/>
<!-- contribute -->
<g id="node1" class="node">
<title>contribute</title>
<ellipse fill="none" stroke="black" cx="118.5" cy="-450" rx="59.29" ry="18"/>
<text text-anchor="middle" x="118.5" y="-446.3" font-family="Times,serif" font-size="14.00">contribute</text>
</g>
<!-- source -->
<g id="node2" class="node">
<title>source</title>
<ellipse fill="none" stroke="black" cx="118.5" cy="-378" rx="41.69" ry="18"/>
<text text-anchor="middle" x="118.5" y="-374.3" font-family="Times,serif" font-size="14.00">source</text>
</g>
<!-- contribute&#45;&gt;source -->
<g id="edge1" class="edge">
<title>contribute&#45;&gt;source</title>
<path fill="none" stroke="black" d="M118.5,-431.7C118.5,-423.98 118.5,-414.71 118.5,-406.11"/>
<polygon fill="black" stroke="black" points="122,-406.1 118.5,-396.1 115,-406.1 122,-406.1"/>
</g>
<!-- build -->
<g id="node3" class="node">
<title>build</title>
<ellipse fill="none" stroke="black" cx="87.5" cy="-306" rx="34.39" ry="18"/>
<text text-anchor="middle" x="87.5" y="-302.3" font-family="Times,serif" font-size="14.00">build</text>
</g>
<!-- source&#45;&gt;build -->
<g id="edge2" class="edge">
<title>source&#45;&gt;build</title>
<path fill="none" stroke="black" d="M110.99,-360.05C107.41,-351.97 103.05,-342.12 99.06,-333.11"/>
<polygon fill="black" stroke="black" points="102.18,-331.52 94.93,-323.79 95.78,-334.35 102.18,-331.52"/>
</g>
<!-- deploy -->
<g id="node4" class="node">
<title>deploy</title>
<ellipse fill="none" stroke="black" cx="80.5" cy="-234" rx="41.69" ry="18"/>
<text text-anchor="middle" x="80.5" y="-230.3" font-family="Times,serif" font-size="14.00">deploy</text>
</g>
<!-- build&#45;&gt;deploy -->
<g id="edge3" class="edge">
<title>build&#45;&gt;deploy</title>
<path fill="none" stroke="black" d="M85.77,-287.7C84.99,-279.98 84.07,-270.71 83.21,-262.11"/>
<polygon fill="black" stroke="black" points="86.68,-261.71 82.21,-252.1 79.72,-262.4 86.68,-261.71"/>
</g>
<!-- upgrade -->
<g id="node5" class="node">
<title>upgrade</title>
<ellipse fill="none" stroke="black" cx="76.5" cy="-162" rx="49.29" ry="18"/>
<text text-anchor="middle" x="76.5" y="-158.3" font-family="Times,serif" font-size="14.00">upgrade</text>
</g>
<!-- deploy&#45;&gt;upgrade -->
<g id="edge4" class="edge">
<title>deploy&#45;&gt;upgrade</title>
<path fill="none" stroke="black" d="M79.51,-215.7C79.07,-207.98 78.54,-198.71 78.05,-190.11"/>
<polygon fill="black" stroke="black" points="81.54,-189.89 77.47,-180.1 74.55,-190.29 81.54,-189.89"/>
</g>
<!-- operate -->
<g id="node6" class="node">
<title>operate</title>
<ellipse fill="none" stroke="black" cx="76.5" cy="-90" rx="46.29" ry="18"/>
<text text-anchor="middle" x="76.5" y="-86.3" font-family="Times,serif" font-size="14.00">operate</text>
</g>
<!-- upgrade&#45;&gt;operate -->
<g id="edge5" class="edge">
<title>upgrade&#45;&gt;operate</title>
<path fill="none" stroke="black" d="M76.5,-143.7C76.5,-135.98 76.5,-126.71 76.5,-118.11"/>
<polygon fill="black" stroke="black" points="80,-118.1 76.5,-108.1 73,-118.1 80,-118.1"/>
</g>
<!-- change -->
<g id="node7" class="node">
<title>change</title>
<ellipse fill="none" stroke="black" cx="153.5" cy="-18" rx="44.39" ry="18"/>
<text text-anchor="middle" x="153.5" y="-14.3" font-family="Times,serif" font-size="14.00">change</text>
</g>
<!-- operate&#45;&gt;change -->
<g id="edge6" class="edge">
<title>operate&#45;&gt;change</title>
<path fill="none" stroke="black" d="M93.97,-73.12C104.21,-63.81 117.31,-51.9 128.61,-41.62"/>
<polygon fill="black" stroke="black" points="131.05,-44.14 136.09,-34.82 126.34,-38.96 131.05,-44.14"/>
</g>
<!-- remove -->
<g id="node8" class="node">
<title>remove</title>
<ellipse fill="none" stroke="black" cx="45.5" cy="-18" rx="45.49" ry="18"/>
<text text-anchor="middle" x="45.5" y="-14.3" font-family="Times,serif" font-size="14.00">remove</text>
</g>
<!-- operate&#45;&gt;remove -->
<g id="edge8" class="edge">
<title>operate&#45;&gt;remove</title>
<path fill="none" stroke="black" d="M68.99,-72.05C65.41,-63.97 61.05,-54.12 57.06,-45.11"/>
<polygon fill="black" stroke="black" points="60.18,-43.52 52.93,-35.79 53.78,-46.35 60.18,-43.52"/>
</g>
<!-- change&#45;&gt;source -->
<g id="edge7" class="edge">
<title>change&#45;&gt;source</title>
<path fill="none" stroke="black" d="M153.5,-36.05C153.5,-62.71 153.5,-115.89 153.5,-161 153.5,-235 153.5,-235 153.5,-235 153.5,-276.16 139.46,-322.12 129.17,-350.31"/>
<polygon fill="black" stroke="black" points="125.83,-349.26 125.58,-359.85 132.38,-351.72 125.83,-349.26"/>
</g>
</g>
</svg>
