<?xml version="1.0" encoding="UTF-8" standalone="no"?>
<!DOCTYPE svg PUBLIC "-//W3C//DTD SVG 1.1//EN"
 "http://www.w3.org/Graphics/SVG/1.1/DTD/svg11.dtd">
<!-- Generated by graphviz version 2.43.0 (0)
 -->
<!-- Title: lifecycle Pages: 1 -->
<svg width="512pt" height="318pt"
 viewBox="0.00 0.00 511.52 317.87" xmlns="http://www.w3.org/2000/svg" xmlns:xlink="http://www.w3.org/1999/xlink">
<g id="graph0" class="graph" transform="scale(1 1) rotate(0) translate(4 313.87)">
<title>lifecycle</title>
<polygon fill="white" stroke="transparent" points="-4,4 -4,-313.87 507.52,-313.87 507.52,4 -4,4"/>
<!-- contribute -->
<g id="node1" class="node">
<title>contribute</title>
<ellipse fill="none" stroke="black" cx="59.14" cy="-115.2" rx="59.29" ry="18"/>
<text text-anchor="middle" x="59.14" y="-111.5" font-family="Times,serif" font-size="14.00">contribute</text>
</g>
<!-- source -->
<g id="node2" class="node">
<title>source</title>
<ellipse fill="none" stroke="black" cx="167.9" cy="-145.64" rx="41.69" ry="18"/>
<text text-anchor="middle" x="167.9" y="-141.94" font-family="Times,serif" font-size="14.00">source</text>
</g>
<!-- contribute&#45;&gt;source -->
<g id="edge1" class="edge">
<title>contribute&#45;&gt;source</title>
<path fill="none" stroke="black" d="M102.75,-127.4C109.27,-129.23 116,-131.11 122.55,-132.94"/>
<polygon fill="black" stroke="black" points="122.06,-136.44 132.63,-135.77 123.95,-129.7 122.06,-136.44"/>
</g>
<!-- build -->
<g id="node3" class="node">
<title>build</title>
<ellipse fill="none" stroke="black" cx="199" cy="-262.08" rx="34.39" ry="18"/>
<text text-anchor="middle" x="199" y="-258.38" font-family="Times,serif" font-size="14.00">build</text>
</g>
<!-- source&#45;&gt;build -->
<g id="edge2" class="edge">
<title>source&#45;&gt;build</title>
<path fill="none" stroke="black" d="M172.69,-163.58C177.72,-182.41 185.7,-212.28 191.55,-234.19"/>
<polygon fill="black" stroke="black" points="188.19,-235.17 194.15,-243.93 194.95,-233.36 188.19,-235.17"/>
</g>
<!-- deploy -->
<g id="node4" class="node">
<title>deploy</title>
<ellipse fill="none" stroke="black" cx="313.33" cy="-291.87" rx="41.69" ry="18"/>
<text text-anchor="middle" x="313.33" y="-288.17" font-family="Times,serif" font-size="14.00">deploy</text>
</g>
<!-- build&#45;&gt;deploy -->
<g id="edge3" class="edge">
<title>build&#45;&gt;deploy</title>
<path fill="none" stroke="black" d="M229.94,-270.14C241.52,-273.16 254.94,-276.66 267.58,-279.95"/>
<polygon fill="black" stroke="black" points="266.95,-283.4 277.51,-282.54 268.71,-276.63 266.95,-283.4"/>
</g>
<!-- upgrade -->
<g id="node5" class="node">
<title>upgrade</title>
<ellipse fill="none" stroke="black" cx="401.4" cy="-213.1" rx="49.29" ry="18"/>
<text text-anchor="middle" x="401.4" y="-209.4" font-family="Times,serif" font-size="14.00">upgrade</text>
</g>
<!-- deploy&#45;&gt;upgrade -->
<g id="edge4" class="edge">
<title>deploy&#45;&gt;upgrade</title>
<path fill="none" stroke="black" d="M331.58,-275.55C344.05,-264.4 360.77,-249.44 374.73,-236.96"/>
<polygon fill="black" stroke="black" points="377.45,-239.22 382.57,-229.94 372.78,-234 377.45,-239.22"/>
</g>
<!-- operate -->
<g id="node6" class="node">
<title>operate</title>
<ellipse fill="none" stroke="black" cx="375.76" cy="-95.38" rx="46.29" ry="18"/>
<text text-anchor="middle" x="375.76" y="-91.68" font-family="Times,serif" font-size="14.00">operate</text>
</g>
<!-- upgrade&#45;&gt;operate -->
<g id="edge5" class="edge">
<title>upgrade&#45;&gt;operate</title>
<path fill="none" stroke="black" d="M397.45,-194.96C393.28,-175.81 386.65,-145.38 381.82,-123.19"/>
<polygon fill="black" stroke="black" points="385.22,-122.37 379.67,-113.35 378.38,-123.86 385.22,-122.37"/>
</g>
<!-- change -->
<g id="node7" class="node">
<title>change</title>
<ellipse fill="none" stroke="black" cx="259.22" cy="-68.51" rx="44.39" ry="18"/>
<text text-anchor="middle" x="259.22" y="-64.81" font-family="Times,serif" font-size="14.00">change</text>
</g>
<!-- operate&#45;&gt;change -->
<g id="edge6" class="edge">
<title>operate&#45;&gt;change</title>
<path fill="none" stroke="black" d="M335.98,-86.21C326.97,-84.13 317.31,-81.91 307.98,-79.75"/>
<polygon fill="black" stroke="black" points="308.56,-76.3 298.03,-77.46 306.99,-83.12 308.56,-76.3"/>
</g>
<!-- remove -->
<g id="node8" class="node">
<title>remove</title>
<ellipse fill="none" stroke="black" cx="458.03" cy="-18" rx="45.49" ry="18"/>
<text text-anchor="middle" x="458.03" y="-14.3" font-family="Times,serif" font-size="14.00">remove</text>
</g>
<!-- operate&#45;&gt;remove -->
<g id="edge8" class="edge">
<title>operate&#45;&gt;remove</title>
<path fill="none" stroke="black" d="M393.61,-78.59C405.04,-67.84 420.04,-53.73 432.69,-41.83"/>
<polygon fill="black" stroke="black" points="435.33,-44.16 440.21,-34.76 430.53,-39.06 435.33,-44.16"/>
</g>
<!-- change&#45;&gt;source -->
<g id="edge7" class="edge">
<title>change&#45;&gt;source</title>
<path fill="none" stroke="black" d="M239.85,-84.87C226.69,-95.99 209.1,-110.84 194.61,-123.08"/>
<polygon fill="black" stroke="black" points="192.31,-120.44 186.92,-129.57 196.82,-125.79 192.31,-120.44"/>
</g>
</g>
</svg>
