<?xml version="1.0" encoding="UTF-8" standalone="no"?>
<!DOCTYPE svg PUBLIC "-//W3C//DTD SVG 1.1//EN"
 "http://www.w3.org/Graphics/SVG/1.1/DTD/svg11.dtd">
<!-- Generated by graphviz version 2.36.0 (20140111.2315)
 -->
<!-- Title: lifecycle Pages: 1 -->
<svg width="346pt" height="231pt"
 viewBox="0.00 0.00 346.05 231.48" xmlns="http://www.w3.org/2000/svg" xmlns:xlink="http://www.w3.org/1999/xlink">
<g id="graph0" class="graph" transform="scale(1 1) rotate(0) translate(4 227.475)">
<title>lifecycle</title>
<polygon fill="white" stroke="none" points="-4,4 -4,-227.475 342.05,-227.475 342.05,4 -4,4"/>
<!-- contribute -->
<g id="node1" class="node"><title>contribute</title>
<polygon fill="lightblue" stroke="lightblue" points="65,-102.536 0,-102.536 0,-66.5359 65,-66.5359 65,-102.536"/>
<text text-anchor="middle" x="32.5" y="-80.8359" font-family="Times,serif" font-size="14.00">contribute</text>
</g>
<!-- source -->
<g id="node2" class="node"><title>source</title>
<polygon fill="lightblue" stroke="lightblue" points="139.444,-123.371 74.4445,-123.371 74.4445,-87.3715 139.444,-87.3715 139.444,-123.371"/>
<text text-anchor="middle" x="106.944" y="-101.671" font-family="Times,serif" font-size="14.00">source</text>
</g>
<!-- contribute&#45;&gt;source -->
<g id="edge1" class="edge"><title>contribute&#45;&gt;source</title>
<path fill="none" stroke="black" d="M65.3691,-93.7353C65.4616,-93.7612 65.5542,-93.7871 65.6468,-93.813"/>
<polygon fill="black" stroke="black" points="63.712,-96.9059 74.2853,-96.2308 65.5987,-90.165 63.712,-96.9059"/>
</g>
<!-- build -->
<g id="node3" class="node"><title>build</title>
<polygon fill="lightblue" stroke="lightblue" points="160.736,-203.08 95.7359,-203.08 95.7359,-167.08 160.736,-167.08 160.736,-203.08"/>
<text text-anchor="middle" x="128.236" y="-181.38" font-family="Times,serif" font-size="14.00">build</text>
</g>
<!-- source&#45;&gt;build -->
<g id="edge2" class="edge"><title>source&#45;&gt;build</title>
<path fill="none" stroke="black" d="M111.776,-123.458C114.444,-133.446 117.814,-146.064 120.809,-157.277"/>
<polygon fill="black" stroke="black" points="117.461,-158.306 123.424,-167.064 124.224,-156.5 117.461,-158.306"/>
</g>
<!-- deploy -->
<g id="node4" class="node"><title>deploy</title>
<polygon fill="lightblue" stroke="lightblue" points="238.999,-223.475 173.999,-223.475 173.999,-187.475 238.999,-187.475 238.999,-223.475"/>
<text text-anchor="middle" x="206.499" y="-201.775" font-family="Times,serif" font-size="14.00">deploy</text>
</g>
<!-- build&#45;&gt;deploy -->
<g id="edge3" class="edge"><title>build&#45;&gt;deploy</title>
<path fill="none" stroke="black" d="M160.973,-193.611C162.041,-193.889 163.116,-194.169 164.193,-194.45"/>
<polygon fill="black" stroke="black" points="163.333,-197.843 173.893,-196.978 165.098,-191.069 163.333,-197.843"/>
</g>
<!-- upgrade -->
<g id="node5" class="node"><title>upgrade</title>
<polygon fill="lightblue" stroke="lightblue" points="299.289,-169.552 234.289,-169.552 234.289,-133.552 299.289,-133.552 299.289,-169.552"/>
<text text-anchor="middle" x="266.789" y="-147.852" font-family="Times,serif" font-size="14.00">upgrade</text>
</g>
<!-- deploy&#45;&gt;upgrade -->
<g id="edge4" class="edge"><title>deploy&#45;&gt;upgrade</title>
<path fill="none" stroke="black" d="M226.91,-187.219C230.74,-183.794 234.806,-180.158 238.819,-176.568"/>
<polygon fill="black" stroke="black" points="241.278,-179.065 246.398,-169.789 236.611,-173.847 241.278,-179.065"/>
</g>
<!-- operate -->
<g id="node6" class="node"><title>operate</title>
<polygon fill="lightblue" stroke="lightblue" points="281.734,-88.9721 216.734,-88.9721 216.734,-52.9721 281.734,-52.9721 281.734,-88.9721"/>
<text text-anchor="middle" x="249.234" y="-67.2721" font-family="Times,serif" font-size="14.00">operate</text>
</g>
<!-- upgrade&#45;&gt;operate -->
<g id="edge5" class="edge"><title>upgrade&#45;&gt;operate</title>
<path fill="none" stroke="black" d="M262.805,-133.267C260.606,-123.171 257.827,-110.415 255.357,-99.0787"/>
<polygon fill="black" stroke="black" points="258.75,-98.2104 253.202,-89.1846 251.91,-99.7005 258.75,-98.2104"/>
</g>
<!-- change -->
<g id="node7" class="node"><title>change</title>
<polygon fill="lightblue" stroke="lightblue" points="201.959,-70.5771 136.959,-70.5771 136.959,-34.5771 201.959,-34.5771 201.959,-70.5771"/>
<text text-anchor="middle" x="169.459" y="-48.8771" font-family="Times,serif" font-size="14.00">change</text>
</g>
<!-- operate&#45;&gt;change -->
<g id="edge6" class="edge"><title>operate&#45;&gt;change</title>
<path fill="none" stroke="black" d="M216.326,-63.384C214.851,-63.0438 213.362,-62.7006 211.869,-62.3562"/>
<polygon fill="black" stroke="black" points="212.565,-58.925 202.034,-60.0885 210.992,-65.746 212.565,-58.925"/>
</g>
<!-- remove -->
<g id="node8" class="node"><title>remove</title>
<polygon fill="lightblue" stroke="lightblue" points="338.05,-36 273.05,-36 273.05,-0 338.05,-0 338.05,-36"/>
<text text-anchor="middle" x="305.55" y="-14.3" font-family="Times,serif" font-size="14.00">remove</text>
</g>
<!-- operate&#45;&gt;remove -->
<g id="edge8" class="edge"><title>operate&#45;&gt;remove</title>
<path fill="none" stroke="black" d="M268.615,-52.7421C271.926,-49.6278 275.416,-46.3442 278.877,-43.0889"/>
<polygon fill="black" stroke="black" points="281.438,-45.4851 286.324,-36.0842 276.642,-40.3863 281.438,-45.4851"/>
</g>
<!-- change&#45;&gt;source -->
<g id="edge7" class="edge"><title>change&#45;&gt;source</title>
<path fill="none" stroke="black" d="M147.945,-70.746C144.071,-74.0176 139.975,-77.4767 135.93,-80.8926"/>
<polygon fill="black" stroke="black" points="133.668,-78.2219 128.286,-87.348 138.185,-83.5699 133.668,-78.2219"/>
</g>
</g>
</svg>
