<?xml version="1.0" encoding="UTF-8" standalone="no"?>
<!DOCTYPE svg PUBLIC "-//W3C//DTD SVG 1.1//EN"
 "http://www.w3.org/Graphics/SVG/1.1/DTD/svg11.dtd">
<!-- Generated by graphviz version 2.36.0 (20140111.2315)
 -->
<!-- Title: lifecycle Pages: 1 -->
<svg width="382pt" height="231pt"
 viewBox="0.00 0.00 381.92 231.48" xmlns="http://www.w3.org/2000/svg" xmlns:xlink="http://www.w3.org/1999/xlink">
<g id="graph0" class="graph" transform="scale(1 1) rotate(0) translate(4 227.475)">
<title>lifecycle</title>
<polygon fill="white" stroke="none" points="-4,4 -4,-227.475 377.922,-227.475 377.922,4 -4,4"/>
<!-- contribute -->
<g id="node1" class="node"><title>contribute</title>
<ellipse fill="none" stroke="black" cx="46.1459" cy="-87.0779" rx="46.2923" ry="18"/>
<text text-anchor="middle" x="46.1459" y="-83.3779" font-family="Times,serif" font-size="14.00">contribute</text>
</g>
<!-- source -->
<g id="node2" class="node"><title>source</title>
<ellipse fill="none" stroke="black" cx="137.62" cy="-104.565" rx="33.5952" ry="18"/>
<text text-anchor="middle" x="137.62" y="-100.865" font-family="Times,serif" font-size="14.00">source</text>
</g>
<!-- contribute&#45;&gt;source -->
<g id="edge1" class="edge"><title>contribute&#45;&gt;source</title>
<path fill="none" stroke="black" d="M87.6009,-95.0026C90.2481,-95.5087 92.9146,-96.0184 95.5645,-96.525"/>
<polygon fill="black" stroke="black" points="95.1478,-100.009 105.627,-98.4486 96.4622,-93.1332 95.1478,-100.009"/>
</g>
<!-- build -->
<g id="node3" class="node"><title>build</title>
<ellipse fill="none" stroke="black" cx="158.912" cy="-185.08" rx="28.6953" ry="18"/>
<text text-anchor="middle" x="158.912" y="-181.38" font-family="Times,serif" font-size="14.00">build</text>
</g>
<!-- source&#45;&gt;build -->
<g id="edge2" class="edge"><title>source&#45;&gt;build</title>
<path fill="none" stroke="black" d="M142.346,-122.434C145.075,-132.753 148.565,-145.951 151.637,-157.569"/>
<polygon fill="black" stroke="black" points="148.259,-158.488 154.2,-167.261 155.027,-156.698 148.259,-158.488"/>
</g>
<!-- deploy -->
<g id="node4" class="node"><title>deploy</title>
<ellipse fill="none" stroke="black" cx="237.174" cy="-205.475" rx="34.394" ry="18"/>
<text text-anchor="middle" x="237.174" y="-201.775" font-family="Times,serif" font-size="14.00">deploy</text>
</g>
<!-- build&#45;&gt;deploy -->
<g id="edge3" class="edge"><title>build&#45;&gt;deploy</title>
<path fill="none" stroke="black" d="M185.408,-191.985C188.942,-192.905 192.629,-193.867 196.337,-194.833"/>
<polygon fill="black" stroke="black" points="195.55,-198.245 206.109,-197.38 197.315,-191.471 195.55,-198.245"/>
</g>
<!-- upgrade -->
<g id="node5" class="node"><title>upgrade</title>
<ellipse fill="none" stroke="black" cx="297.465" cy="-151.552" rx="38.9931" ry="18"/>
<text text-anchor="middle" x="297.465" y="-147.852" font-family="Times,serif" font-size="14.00">upgrade</text>
</g>
<!-- deploy&#45;&gt;upgrade -->
<g id="edge4" class="edge"><title>deploy&#45;&gt;upgrade</title>
<path fill="none" stroke="black" d="M254.613,-189.878C259.968,-185.088 265.979,-179.712 271.766,-174.537"/>
<polygon fill="black" stroke="black" points="274.316,-176.951 279.437,-167.676 269.65,-171.734 274.316,-176.951"/>
</g>
<!-- operate -->
<g id="node6" class="node"><title>operate</title>
<ellipse fill="none" stroke="black" cx="279.91" cy="-70.9721" rx="36.2938" ry="18"/>
<text text-anchor="middle" x="279.91" y="-67.2721" font-family="Times,serif" font-size="14.00">operate</text>
</g>
<!-- upgrade&#45;&gt;operate -->
<g id="edge5" class="edge"><title>upgrade&#45;&gt;operate</title>
<path fill="none" stroke="black" d="M293.481,-133.267C291.266,-123.1 288.463,-110.235 285.981,-98.8395"/>
<polygon fill="black" stroke="black" points="289.365,-97.9328 283.817,-88.9071 282.526,-99.4229 289.365,-97.9328"/>
</g>
<!-- change -->
<g id="node7" class="node"><title>change</title>
<ellipse fill="none" stroke="black" cx="200.135" cy="-52.5771" rx="35.9954" ry="18"/>
<text text-anchor="middle" x="200.135" y="-48.8771" font-family="Times,serif" font-size="14.00">change</text>
</g>
<!-- operate&#45;&gt;change -->
<g id="edge6" class="edge"><title>operate&#45;&gt;change</title>
<path fill="none" stroke="black" d="M246.54,-63.2776C245.267,-62.9841 243.985,-62.6885 242.7,-62.392"/>
<polygon fill="black" stroke="black" points="243.39,-58.9594 232.859,-60.123 241.817,-65.7804 243.39,-58.9594"/>
</g>
<!-- remove -->
<g id="node8" class="node"><title>remove</title>
<ellipse fill="none" stroke="black" cx="336.226" cy="-18" rx="37.8943" ry="18"/>
<text text-anchor="middle" x="336.226" y="-14.3" font-family="Times,serif" font-size="14.00">remove</text>
</g>
<!-- operate&#45;&gt;remove -->
<g id="edge8" class="edge"><title>operate&#45;&gt;remove</title>
<path fill="none" stroke="black" d="M297.112,-54.7909C301.697,-50.478 306.742,-45.7332 311.639,-41.1263"/>
<polygon fill="black" stroke="black" points="314.242,-43.4831 319.128,-34.0821 309.446,-38.3843 314.242,-43.4831"/>
</g>
<!-- change&#45;&gt;source -->
<g id="edge7" class="edge"><title>change&#45;&gt;source</title>
<path fill="none" stroke="black" d="M181.379,-68.1751C175.84,-72.7811 169.674,-77.9084 163.76,-82.8267"/>
<polygon fill="black" stroke="black" points="161.384,-80.2504 155.933,-89.3355 165.86,-85.6325 161.384,-80.2504"/>
</g>
</g>
</svg>
